<svg width="505" height="90" viewBox="0 0 505 90" fill="none" xmlns="http://www.w3.org/2000/svg">
<g clip-path="url(#clip0_12_9)">
<path d="M4.30925 44.2139L1.57033 43.4314V40.3012L3.91797 39.5186C5.09179 35.6059 5.09179 31.3019 3.91797 27.3892L1.57033 26.2153V23.0851L50.4795 0L81.7814 25.4328C86.868 29.7368 90.7807 44.2139 82.1727 45.779C80.6076 45.779 77.0862 47.3441 70.4345 48.1267L79.0425 52.0394V54.387L75.5211 55.1696C74.7385 58.6911 74.3472 61.8212 74.7385 65.3427L90.7807 68.4729V70.8205L88.8244 71.2118C87.2593 75.1246 87.2593 80.6024 88.8244 84.5151H90.7807V86.4715L62.609 89.6017L12.526 86.4715C3.13543 85.6889 0.787783 72.3856 10.1784 67.6904C7.04816 67.6904 4.70052 67.6904 3.91797 66.9078C-1.55986 62.9951 -1.16859 48.1267 4.30925 44.2139ZM7.83071 65.734L38.3501 62.2125C35.2199 55.1696 36.0024 46.9528 38.3501 39.9099L6.26562 46.9528C0.39651 48.1267 1.57033 66.1253 7.83071 65.734ZM63.0003 86.8628L87.6505 84.9064C86.0855 80.6024 86.4767 74.7333 87.6505 70.4293L63.7829 66.9078C51.6534 64.9514 50.4795 88.4279 63.0003 86.8628ZM39.1326 62.2125L48.5232 63.7776C54.7836 62.9951 59.0876 62.2125 61.4352 62.6038L73.956 64.9514C73.5647 61.0387 73.956 57.9085 75.1298 53.9958L39.1326 39.9099C36.785 46.9528 36.0024 55.1696 39.1326 62.2125ZM4.30925 25.8241C5.87434 30.5193 6.26562 34.4321 4.70052 39.1274L49.3057 24.6502C51.2621 19.1724 50.4795 11.7382 49.3057 6.26038L4.30925 25.8241ZM50.4795 6.26038C51.6534 11.7382 52.4359 19.1724 50.4795 24.6502C54.3923 27.3892 78.26 43.0401 80.9989 43.0401C86.0855 43.0401 84.1291 31.3019 80.9989 28.9543L50.4795 6.26038Z" fill="#1877F2"/>
<path d="M112.208 65.248V23.264H143.632V30.368H119.76V42.208H141.2V48.928H119.76V60.896H144.4V65.248H150.608V68H106V65.248H112.208ZM197.923 65.248V68H147.875V65.248H154.083V23.264H169.443C177.464 23.264 183.63 25.2267 187.939 29.152C192.248 33.0347 194.403 38.5173 194.403 45.6C194.403 55.1147 190.648 61.664 183.139 65.248H197.923ZM186.787 45.6C186.787 35.36 180.92 30.24 169.187 30.24H161.635V60.896H170.019C175.438 60.896 179.576 59.616 182.435 57.056C185.336 54.4533 186.787 50.6347 186.787 45.6ZM247.09 65.248V68H197.938V65.248H211.186C206.108 61.7067 203.57 56.096 203.57 48.416V23.264H211.122V48.096C211.122 52.192 212.146 55.4347 214.194 57.824C216.242 60.2133 219.015 61.408 222.514 61.408C226.012 61.408 228.786 60.2133 230.833 57.824C232.882 55.4347 233.906 52.192 233.906 48.096V23.264H241.458V48.416C241.458 56.1387 238.898 61.7493 233.778 65.248H247.09ZM309.975 65.248V68H296.215V33.056L280.599 64.096H276.375L260.823 33.056V68H247.062V65.248H253.271V23.264H265.047L278.551 51.36L292.055 23.264H303.767V65.248H309.975ZM316.208 65.248V23.264H347.632V30.368H323.76V42.208H345.2V48.928H323.76V60.896H348.4V65.248H354.608V68H310V65.248H316.208ZM390.531 65.248V68H351.875V65.248H367.427V30.176H353.859V23.264H388.547V30.176H374.979V65.248H390.531ZM438.692 65.248V68H424.868L414.18 52.96H404.26V68H390.5V65.248H396.708V23.264H413.348C420.175 23.264 425.06 24.416 428.004 26.72C430.948 29.024 432.42 32.7147 432.42 37.792C432.42 45.1733 429.199 49.824 422.756 51.744L432.484 65.248H438.692ZM413.668 46.112C417.935 46.112 420.836 45.4507 422.372 44.128C423.908 42.8053 424.676 40.6933 424.676 37.792C424.676 34.848 423.887 32.8427 422.308 31.776C420.729 30.6667 417.913 30.112 413.86 30.112H404.26V46.112H413.668ZM443.271 65.248V23.264H450.823V65.248H457.031V68H437.062V65.248H443.271ZM504.104 65.248V68H457V65.248H471.208C467.837 63.2427 465.171 60.512 463.208 57.056C461.288 53.6 460.328 49.696 460.328 45.344C460.328 38.7733 462.589 33.2693 467.112 28.832C471.677 24.3947 477.416 22.176 484.328 22.176C491.283 22.176 497.085 24.736 501.736 29.856L496.936 35.104C494.803 33.056 492.776 31.6267 490.856 30.816C488.979 30.0053 486.76 29.6 484.2 29.6C479.677 29.6 475.88 31.072 472.808 34.016C469.736 36.9173 468.2 40.6507 468.2 45.216C468.2 49.7387 469.715 53.536 472.744 56.608C475.816 59.6373 479.443 61.152 483.624 61.152C486.227 61.152 488.467 60.7253 490.344 59.872C492.221 58.976 494.184 57.568 496.232 55.648L501.096 60.64C499.219 62.688 497.427 64.224 495.72 65.248H504.104Z" fill="#1877F2"/>
</g>
<defs>
<clipPath id="clip0_12_9">
<rect width="505" height="90" fill="white"/>
</clipPath>
</defs>
</svg>
